<?xml version="1.0" standalone="no"?>
<!DOCTYPE svg PUBLIC "-//W3C//DTD SVG 1.1//EN" "http://www.w3.org/Graphics/SVG/1.1/DTD/svg11.dtd">
<svg version="1.1" xmlns="http://www.w3.org/2000/svg" viewBox="0 0 249.08280500654132 184.95533427074548" width="249.08280500654132" height="184.95533427074548" filter="invert(93%) hue-rotate(180deg)"><!-- svg-source:excalidraw --><metadata></metadata><defs><style class="style-fonts">
      </style></defs><g stroke-linecap="round"><g transform="translate(47.43352230932567 12.315851983800542) rotate(0 68 -1)"><path d="M-1.01 -0.14 C21.55 -0.36, 112.17 -1.94, 135.12 -2.32 M0.66 -1.26 C23.61 -1.22, 114.76 -0.95, 137.37 -0.94" stroke="#1e1e1e" stroke-width="4" fill="none"></path></g></g><mask></mask><g stroke-linecap="round"><g transform="translate(85.43352230932567 12.315851983800542) rotate(0 -29 80.5)"><path d="M0.53 -0.92 C-8.93 26, -47.72 134.71, -57.4 161.67 M-0.65 1.22 C-10.16 27.78, -48.46 133.09, -58.03 159.91" stroke="#1e1e1e" stroke-width="4" fill="none"></path></g></g><mask></mask><g stroke-linecap="round"><g transform="translate(113.43352230932567 37.31585198380054) rotate(0 -24.5 68)"><path d="M0.39 0.62 C-7.65 23.02, -41.03 112.27, -49.12 134.88 M-0.86 -0.1 C-9 22.37, -42.19 112.85, -50.13 135.83" stroke="#1e1e1e" stroke-width="4" fill="none"></path></g></g><mask></mask><g stroke-linecap="round"><g transform="translate(113.43352230932567 39.31585198380054) rotate(0 23.5 43.5)"><path d="M-0.32 -0.72 C7.44 13.88, 38.31 73.56, 46.04 88 M1.71 1.52 C9.89 15.77, 40.46 72.21, 48.26 86.41" stroke="#1e1e1e" stroke-width="4" fill="none"></path></g></g><mask></mask><g stroke-linecap="round"><g transform="translate(161.43352230932567 122.31585198380054) rotate(0 22.5 -41.5)"><path d="M0.32 -0.05 C8.02 -13.67, 38.18 -68.46, 45.67 -82.14 M-0.97 -1.11 C6.68 -15.03, 37.47 -69.99, 45.08 -83.8" stroke="#1e1e1e" stroke-width="4" fill="none"></path></g></g><mask></mask><g stroke-linecap="round"><g transform="translate(207.43352230932567 40.31585198380054) rotate(0 15.5 65.5)"><path d="M-0.69 -1.15 C4.75 20.51, 26.33 108.81, 31.65 130.93 M1.15 0.87 C6.58 22.64, 26.14 110.98, 31.04 132.42" stroke="#1e1e1e" stroke-width="4" fill="none"></path></g><g transform="translate(207.43352230932567 40.31585198380054) rotate(0 15.5 65.5)"><path d="M17.55 111.38 C18.74 117.1, 23.45 120.93, 31.04 132.42 M17.55 111.38 C22.01 117.85, 26.53 126.57, 31.04 132.42" stroke="#1e1e1e" stroke-width="4" fill="none"></path></g><g transform="translate(207.43352230932567 40.31585198380054) rotate(0 15.5 65.5)"><path d="M34.23 107.63 C31.83 114.07, 32.93 118.71, 31.04 132.42 M34.23 107.63 C32.93 115.27, 31.64 125.3, 31.04 132.42" stroke="#1e1e1e" stroke-width="4" fill="none"></path></g></g><mask></mask><g stroke-linecap="round"><g transform="translate(11.433522309325667 175.31585198380054) rotate(0 93.5 -1.5)"><path d="M0.02 -0.36 C30.98 -0.83, 155.69 -1.48, 186.85 -1.88 M-1.43 -1.6 C29.26 -2.45, 154.55 -3.46, 185.82 -3.42" stroke="#1e1e1e" stroke-width="4" fill="none"></path></g></g><mask></mask></svg>